<?xml version="1.0" encoding="UTF-8" standalone="no"?>
<!DOCTYPE svg PUBLIC "-//W3C//DTD SVG 1.1//EN" "http://www.w3.org/Graphics/SVG/1.1/DTD/svg11.dtd">
<svg xmlns="http://www.w3.org/2000/svg" xmlns:xlink="http://www.w3.org/1999/xlink" version="1.1" width="841.8898pt" height="595.2756pt" viewBox="0 0 841.8898 595.2756">
<g enable-background="new">
<g id="Layer-1" data-name="Camada 1">
<path transform="matrix(1,0,0,-1,0,595.2756)" d="M 190.2195 310.6412 C 191.5886 307.0318 192.958 303.4227 194.3269 299.8137 C 194.908 298.1268 195.4891 296.4393 196.0702 294.7516 C 197.297 290.4968 198.409 286.2181 199.2781 281.8687 C 200.0477 278.0164 199.9777 274.1621 199.7932 270.2886 C 199.7501 269.3775 199.1582 268.763 198.4757 268.179 C 193.6721 264.0694 187.9654 261.8436 181.9616 260.2749 C 174.8013 258.404 167.5301 257.1752 160.16 256.4133 C 152.93 255.6658 145.6877 255.3554 138.433 255.0135 C 129.5935 254.5974 120.7542 254.5761 111.9331 254.8276 C 97.793 255.2306 83.6895 256.2843 70.1501 260.9419 C 64.8468 262.7663 59.7175 264.9481 55.4136 268.6864 C 52.0597 271.5996 50.3858 275.3932 50.3467 279.7223 C 50.3031 284.4669 52.1481 288.665 55.4357 292.0822 C 60.4003 297.2421 66.6544 300.0322 73.6109 301.235 C 81.0349 302.5185 88.5149 302.5066 96.0279 302.0275 C 99.0485 301.8348 102.0923 301.735 105.1211 301.5711 C 110.2484 301.2936 115.3655 300.8577 120.4778 300.3111 C 136.2305 298.6268 151.3318 294.2084 166.4087 289.6509 C 166.7299 289.5534 167.0848 289.5673 167.4244 289.5299 L 167.4096 289.5517 C 167.9556 288.9646 168.6977 288.8881 169.5489 288.654 C 169.4112 288.9995 169.3536 289.2081 169.2493 289.3904 C 169.1144 289.6279 168.9426 289.8439 168.7864 290.0693 C 168.5625 290.7037 168.3794 291.3622 167.7838 291.7786 C 167.8714 292.1596 167.8569 292.4963 167.4094 292.6463 L 167.4198 292.6344 C 166.0963 295.9529 164.7635 299.268 163.4513 302.5913 C 158.9777 313.9211 154.984 325.4151 152.1088 337.2602 C 150.7567 342.83 149.8541 348.5032 149.1554 354.1992 C 148.6766 358.0994 148.2265 362.0035 147.7672 365.906 C 147.6017 367.3134 147.0353 368.0127 145.4071 368.1465 C 138.0064 368.7554 130.8657 370.4689 123.9248 373.1964 C 120.6391 374.4879 117.3064 375.628 114.2014 377.3296 C 111.9566 378.5598 110.6351 380.1745 110.0548 382.9357 C 109.5293 385.4364 110.5455 386.9019 111.8231 388.3927 C 113.1148 389.9004 113.7623 391.2083 112.3223 392.9241 C 112.0011 393.306 111.8319 393.8264 111.6377 394.3009 C 110.8565 396.2126 111.2941 397.7785 113.0431 398.9242 C 115.6076 400.6054 118.6072 401.2209 121.4549 402.1951 C 124.9347 403.3851 128.4392 404.5034 131.9329 405.6525 C 132.7368 405.6525 133.5407 405.6525 134.3446 405.6525 C 137.2873 403.1413 139.157 399.7596 141.4865 396.7583 C 146.3927 390.4356 150.6277 383.6378 154.6486 376.742 C 159.4256 368.5487 164.9803 360.8583 169.7122 352.6379 C 174.1844 344.8687 178.5436 337.049 182.5047 329.0083 C 182.6033 328.8081 182.732 328.6236 182.8474 328.4323 C 183.1286 327.6281 183.3214 326.7848 183.8857 326.107 C 185.3101 322.7057 186.7348 319.305 188.159 315.9054 C 188.8455 314.1513 189.5323 312.3961 190.2195 310.6412 Z M 130.0059 390.3894 L 130.0059 390.3894 C 130.7265 392.0468 131.3144 393.3805 131.8853 394.7213 C 132.1024 395.2301 132.3624 395.7109 133.0098 395.4906 C 133.7349 395.2434 133.482 394.6501 133.2972 394.1926 C 132.6342 392.5505 131.9414 390.9203 131.2288 389.2989 C 131.0437 388.8782 130.6922 388.4856 131.1831 388.0857 C 132.5832 386.9444 131.8167 386.6204 130.593 386.2905 C 129.6816 386.0444 128.7709 385.9106 127.8751 386.0895 C 125.8787 386.4881 123.8635 386.4509 121.8713 386.2998 C 118.9894 386.0813 116.0257 386.096 113.4615 384.3907 C 112.1604 383.5253 111.7466 382.1406 112.6338 381.054 C 113.2773 380.2663 114.0168 379.5653 114.9236 379.0148 C 118.6991 376.7227 122.9505 375.575 127.0151 374.0105 C 133.6402 371.4616 140.6339 370.4428 147.6714 369.7852 C 148.8691 369.6729 149.3776 369.131 149.4972 367.9784 C 149.811 364.9737 150.2345 361.9794 150.5169 358.9719 C 151.2094 351.5998 152.2687 344.2504 154.1186 337.1142 C 158.2801 321.0585 163.6356 305.392 170.8557 290.4066 C 171.8606 288.3209 173.1399 286.9863 175.426 286.3106 C 177.5228 285.6909 179.682 284.9233 181.2141 283.1539 C 181.4196 282.9166 181.8621 282.7431 181.6747 282.3443 C 181.4734 281.9143 181.012 281.903 180.616 281.9976 C 180.2333 282.0889 179.877 282.2888 179.5065 282.4339 C 175.4768 284.0117 171.502 285.7513 167.4062 287.1329 C 156.4146 290.8414 145.2155 293.8022 133.8514 296.1573 C 124.0526 298.1883 114.1415 299.0815 104.1678 299.5954 C 101.7105 299.7221 99.2475 299.7522 96.7932 299.9293 C 88.9492 300.4954 81.0918 300.6414 73.3533 299.1291 C 66.5172 297.7937 60.2416 295.0931 55.8142 289.3598 C 50.2016 282.0909 51.4457 272.9954 59.434 268.0951 C 63.5017 265.6001 67.8353 263.753 72.3586 262.3025 C 84.42 258.4355 96.9129 257.2316 109.4491 256.9082 C 120.1059 256.6335 130.7846 256.5541 141.4565 257.0913 C 146.3703 257.3382 151.3001 257.4729 156.1932 257.9128 C 163.044 258.5279 169.8797 259.4248 176.5942 260.9813 C 182.2028 262.2813 187.6961 263.8854 192.8852 266.5361 C 196.8287 268.5504 198.4462 271.5591 198.0553 275.781 C 197.7562 279.0102 197.2395 282.2131 196.5353 285.3873 C 195.0897 291.9087 192.7814 298.152 190.474 304.3942 C 187.073 313.5974 183.4631 322.7159 179.0847 331.5095 C 172.351 345.0336 164.3519 357.804 156.2899 370.5653 C 149.4238 381.4336 142.6856 392.3626 134.9592 402.6526 C 134.0416 403.8746 133.1269 404.1825 131.7419 403.7094 C 128.6127 402.6402 125.4623 401.6353 122.3218 400.5989 C 119.9378 399.8123 117.5233 399.128 115.2181 398.1013 C 112.8163 397.0312 112.5626 396.4235 113.5641 394.0631 C 114.1285 392.7334 114.9806 391.5782 115.6056 390.3015 C 116.4467 388.5846 117.3569 387.5525 119.6014 388.0054 C 121.4722 388.3836 123.4797 388.0834 125.7568 388.0834 C 124.1844 389.2014 122.9403 389.8446 121.3058 389.355 C 120.492 389.1115 119.1861 388.2719 118.8 389.5591 C 118.4638 390.6805 120.0402 390.5138 120.7276 391.0153 C 119.2241 391.9748 117.7328 392.9219 116.2474 393.8769 C 115.7352 394.2062 114.9557 394.522 115.3962 395.2718 C 115.8094 395.9753 116.5127 395.6159 117.0692 395.2871 C 119.1869 394.0367 121.2962 392.7719 123.41 391.5156 C 124.8758 390.6448 126.3263 389.7405 128.2054 389.2425 C 127.9766 392.0916 128.2669 394.808 128.6243 397.5123 C 128.6938 398.0392 128.7232 398.9903 129.596 398.893 C 130.477 398.7947 130.2259 397.9593 130.2049 397.3592 C 130.1261 395.166 129.568 392.9882 130.0059 390.3894 Z M 112.841 386.466 L 112.841 386.466 C 113.5565 386.8943 114.6574 386.6156 114.9576 387.6253 C 115.0234 387.845 114.6832 388.4139 114.3782 388.3311 C 113.5145 388.0959 113.0902 387.3518 112.841 386.466 Z " fill="#5f45b3"/>
<path transform="matrix(1,0,0,-1,0,595.2756)" stroke-width="1.0001" stroke-linecap="butt" stroke-miterlimit="22.925585" stroke-linejoin="miter" fill="none" stroke="#5f45b3" d="M 190.2195 310.6412 C 191.5886 307.0318 192.958 303.4227 194.3269 299.8137 C 194.908 298.1268 195.4891 296.4393 196.0702 294.7516 C 197.297 290.4968 198.409 286.2181 199.2781 281.8687 C 200.0477 278.0164 199.9777 274.1621 199.7932 270.2886 C 199.7501 269.3775 199.1582 268.763 198.4757 268.179 C 193.6721 264.0694 187.9654 261.8436 181.9616 260.2749 C 174.8013 258.404 167.5301 257.1752 160.16 256.4133 C 152.93 255.6658 145.6877 255.3554 138.433 255.0135 C 129.5935 254.5974 120.7542 254.5761 111.9331 254.8276 C 97.793 255.2306 83.6895 256.2843 70.1501 260.9419 C 64.8468 262.7663 59.7175 264.9481 55.4136 268.6864 C 52.0597 271.5996 50.3858 275.3932 50.3467 279.7223 C 50.3031 284.4669 52.1481 288.665 55.4357 292.0822 C 60.4003 297.2421 66.6544 300.0322 73.6109 301.235 C 81.0349 302.5185 88.5149 302.5066 96.0279 302.0275 C 99.0485 301.8348 102.0923 301.735 105.1211 301.5711 C 110.2484 301.2936 115.3655 300.8577 120.4778 300.3111 C 136.2305 298.6268 151.3318 294.2084 166.4087 289.6509 C 166.7299 289.5534 167.0848 289.5673 167.4244 289.5299 L 167.4096 289.5517 C 167.9556 288.9646 168.6977 288.8881 169.5489 288.654 C 169.4112 288.9995 169.3536 289.2081 169.2493 289.3904 C 169.1144 289.6279 168.9426 289.8439 168.7864 290.0693 C 168.5625 290.7037 168.3794 291.3622 167.7838 291.7786 C 167.8714 292.1596 167.8569 292.4963 167.4094 292.6463 L 167.4198 292.6344 C 166.0963 295.9529 164.7635 299.268 163.4513 302.5913 C 158.9777 313.9211 154.984 325.4151 152.1088 337.2602 C 150.7567 342.83 149.8541 348.5032 149.1554 354.1992 C 148.6766 358.0994 148.2265 362.0035 147.7672 365.906 C 147.6017 367.3134 147.0353 368.0127 145.4071 368.1465 C 138.0064 368.7554 130.8657 370.4689 123.9248 373.1964 C 120.6391 374.4879 117.3064 375.628 114.2014 377.3296 C 111.9566 378.5598 110.6351 380.1745 110.0548 382.9357 C 109.5293 385.4364 110.5455 386.9019 111.8231 388.3927 C 113.1148 389.9004 113.7623 391.2083 112.3223 392.9241 C 112.0011 393.306 111.8319 393.8264 111.6377 394.3009 C 110.8565 396.2126 111.2941 397.7785 113.0431 398.9242 C 115.6076 400.6054 118.6072 401.2209 121.4549 402.1951 C 124.9347 403.3851 128.4392 404.5034 131.9329 405.6525 C 132.7368 405.6525 133.5407 405.6525 134.3446 405.6525 C 137.2873 403.1413 139.157 399.7596 141.4865 396.7583 C 146.3927 390.4356 150.6277 383.6378 154.6486 376.742 C 159.4256 368.5487 164.9803 360.8583 169.7122 352.6379 C 174.1844 344.8687 178.5436 337.049 182.5047 329.0083 C 182.6033 328.8081 182.732 328.6236 182.8474 328.4323 C 183.1286 327.6281 183.3214 326.7848 183.8857 326.107 C 185.3101 322.7057 186.7348 319.305 188.159 315.9054 C 188.8455 314.1513 189.5323 312.3961 190.2195 310.6412 Z M 130.0059 390.3894 L 130.0059 390.3894 C 130.7265 392.0468 131.3144 393.3805 131.8853 394.7213 C 132.1024 395.2301 132.3624 395.7109 133.0098 395.4906 C 133.7349 395.2434 133.482 394.6501 133.2972 394.1926 C 132.6342 392.5505 131.9414 390.9203 131.2288 389.2989 C 131.0437 388.8782 130.6922 388.4856 131.1831 388.0857 C 132.5832 386.9444 131.8167 386.6204 130.593 386.2905 C 129.6816 386.0444 128.7709 385.9106 127.8751 386.0895 C 125.8787 386.4881 123.8635 386.4509 121.8713 386.2998 C 118.9894 386.0813 116.0257 386.096 113.4615 384.3907 C 112.1604 383.5253 111.7466 382.1406 112.6338 381.054 C 113.2773 380.2663 114.0168 379.5653 114.9236 379.0148 C 118.6991 376.7227 122.9505 375.575 127.0151 374.0105 C 133.6402 371.4616 140.6339 370.4428 147.6714 369.7852 C 148.8691 369.6729 149.3776 369.131 149.4972 367.9784 C 149.811 364.9737 150.2345 361.9794 150.5169 358.9719 C 151.2094 351.5998 152.2687 344.2504 154.1186 337.1142 C 158.2801 321.0585 163.6356 305.392 170.8557 290.4066 C 171.8606 288.3209 173.1399 286.9863 175.426 286.3106 C 177.5228 285.6909 179.682 284.9233 181.2141 283.1539 C 181.4196 282.9166 181.8621 282.7431 181.6747 282.3443 C 181.4734 281.9143 181.012 281.903 180.616 281.9976 C 180.2333 282.0889 179.877 282.2888 179.5065 282.4339 C 175.4768 284.0117 171.502 285.7513 167.4062 287.1329 C 156.4146 290.8414 145.2155 293.8022 133.8514 296.1573 C 124.0526 298.1883 114.1415 299.0815 104.1678 299.5954 C 101.7105 299.7221 99.2475 299.7522 96.7932 299.9293 C 88.9492 300.4954 81.0918 300.6414 73.3533 299.1291 C 66.5172 297.7937 60.2416 295.0931 55.8142 289.3598 C 50.2016 282.0909 51.4457 272.9954 59.434 268.0951 C 63.5017 265.6001 67.8353 263.753 72.3586 262.3025 C 84.42 258.4355 96.9129 257.2316 109.4491 256.9082 C 120.1059 256.6335 130.7846 256.5541 141.4565 257.0913 C 146.3703 257.3382 151.3001 257.4729 156.1932 257.9128 C 163.044 258.5279 169.8797 259.4248 176.5942 260.9813 C 182.2028 262.2813 187.6961 263.8854 192.8852 266.5361 C 196.8287 268.5504 198.4462 271.5591 198.0553 275.781 C 197.7562 279.0102 197.2395 282.2131 196.5353 285.3873 C 195.0897 291.9087 192.7814 298.152 190.474 304.3942 C 187.073 313.5974 183.4631 322.7159 179.0847 331.5095 C 172.351 345.0336 164.3519 357.804 156.2899 370.5653 C 149.4238 381.4336 142.6856 392.3626 134.9592 402.6526 C 134.0416 403.8746 133.1269 404.1825 131.7419 403.7094 C 128.6127 402.6402 125.4623 401.6353 122.3218 400.5989 C 119.9378 399.8123 117.5233 399.128 115.2181 398.1013 C 112.8163 397.0312 112.5626 396.4235 113.5641 394.0631 C 114.1285 392.7334 114.9806 391.5782 115.6056 390.3015 C 116.4467 388.5846 117.3569 387.5525 119.6014 388.0054 C 121.4722 388.3836 123.4797 388.0834 125.7568 388.0834 C 124.1844 389.2014 122.9403 389.8446 121.3058 389.355 C 120.492 389.1115 119.1861 388.2719 118.8 389.5591 C 118.4638 390.6805 120.0402 390.5138 120.7276 391.0153 C 119.2241 391.9748 117.7328 392.9219 116.2474 393.8769 C 115.7352 394.2062 114.9557 394.522 115.3962 395.2718 C 115.8094 395.9753 116.5127 395.6159 117.0692 395.2871 C 119.1869 394.0367 121.2962 392.7719 123.41 391.5156 C 124.8758 390.6448 126.3263 389.7405 128.2054 389.2425 C 127.9766 392.0916 128.2669 394.808 128.6243 397.5123 C 128.6938 398.0392 128.7232 398.9903 129.596 398.893 C 130.477 398.7947 130.2259 397.9593 130.2049 397.3592 C 130.1261 395.166 129.568 392.9882 130.0059 390.3894 Z M 112.841 386.466 L 112.841 386.466 C 113.5565 386.8943 114.6574 386.6156 114.9576 387.6253 C 115.0234 387.845 114.6832 388.4139 114.3782 388.3311 C 113.5145 388.0959 113.0902 387.3518 112.841 386.466 Z "/>
<path transform="matrix(1,0,0,-1,0,595.2756)" d="M 48.5544 321.5849 C 49.3475 322.9838 50.8207 323.0668 52.1263 323.2494 C 57.7624 324.0388 63.2614 325.499 68.834 326.5943 C 77.0581 328.21 84.9271 327.6462 92.3414 323.4555 C 93.4926 322.8049 94.5831 322.0486 95.4204 321.0131 C 96.0026 320.2929 96.402 319.7259 95.0312 319.1193 C 92.933 318.1901 91.4258 316.3419 89.646 314.915 C 82.9551 309.5507 75.4228 306.6007 66.8106 307.529 C 60.8321 308.1736 55.2739 310.2163 50.8422 314.6128 C 49.8053 315.6415 49.3149 316.9644 48.5544 318.1397 C 48.5544 319.288 48.5544 320.4366 48.5544 321.5849 Z M 90.197 318.1929 L 90.197 318.1929 C 89.7392 318.1748 89.2769 318.191 88.8245 318.1306 C 86.9142 317.876 84.5901 318.189 83.1886 317.2003 C 80.6255 315.3929 78.6087 312.8111 76.127 310.3135 C 80.3149 310.7358 87.2524 314.6545 90.2781 318.1025 C 90.4263 318.1674 90.5751 318.2321 90.7234 318.297 C 90.6809 318.3344 90.6219 318.4123 90.5995 318.4024 C 90.4606 318.3437 90.3302 318.2652 90.197 318.1929 Z M 92.6461 320.6313 L 92.6461 320.6313 C 92.5129 321.283 92.2258 321.4366 91.9239 321.6195 C 86.7932 324.7299 81.1565 326.1047 75.2576 325.6288 C 67.0808 324.9689 59.2228 322.4137 51.1364 320.9545 C 56.8757 318.6315 62.9362 319.0487 68.8844 318.5796 C 67.7497 319.5694 66.6011 320.4122 65.435 321.2291 C 64.9293 321.5837 64.4482 321.9871 64.872 322.6161 C 65.2955 323.2446 65.8834 322.9449 66.3826 322.6246 C 67.1017 322.1631 67.7925 321.6557 68.5188 321.2062 C 70.8548 319.7611 72.9998 317.7944 76.1136 318.4818 C 77.4825 318.784 78.8825 318.8877 80.7398 318.854 C 78.3935 320.1001 76.4453 321.1149 74.5194 322.17 C 73.9386 322.4883 73.0809 322.8812 73.5517 323.6868 C 74.0095 324.4694 74.7799 323.9209 75.3795 323.6323 C 77.7436 322.4957 80.1567 321.4417 82.4329 320.148 C 83.5778 319.4974 84.6938 319.3917 85.8662 319.5451 C 88.1082 319.8379 90.3342 320.2537 92.6461 320.6313 Z M 68.0879 316.6637 L 68.0879 316.6637 C 62.1493 317.0089 56.3431 317.0781 50.5868 318.8324 C 50.8051 317.1217 51.7493 316.0522 52.8324 315.1613 C 55.5483 312.9276 58.6015 311.2858 62.0121 310.3682 C 65.7232 309.3698 69.4647 308.6597 73.3141 309.5144 C 73.599 309.5776 74.274 309.2244 74.1039 310.0039 C 73.9154 310.8677 74.5594 311.254 75.0379 311.7076 C 76.7741 313.3553 78.539 314.9736 80.293 316.6027 C 80.1765 316.7558 80.0597 316.9086 79.9427 317.0619 C 77.2999 316.5806 74.6328 316.7881 71.977 316.6809 C 71.4634 316.66 71.14 316.3895 70.7774 316.1052 C 69.4301 315.0496 68.0729 314.0073 66.7114 312.9704 C 66.2499 312.6192 65.7544 312.529 65.3437 313.0339 C 64.9148 313.5609 65.2371 313.9532 65.6056 314.3761 C 66.3157 315.1925 67.4612 315.5162 68.0879 316.6637 " fill="#5fac52"/>
<path transform="matrix(1,0,0,-1,0,595.2756)" d="M 167.7838 291.7786 C 168.3794 291.3622 168.5625 290.7037 168.7864 290.0693 C 168.3278 289.8964 167.8686 289.724 167.4096 289.5517 L 167.4244 289.5299 C 165.8197 292.1709 162.978 293.1386 160.5317 294.6518 C 153.0465 299.2816 145.4437 303.6773 137.054 306.5083 C 134.5737 307.3448 132.025 307.986 129.5683 308.8828 C 126.8569 309.873 124.5583 309.7729 121.7959 308.3562 C 112.7446 303.7133 101.5982 306.7047 95.2316 312.9817 C 94.3707 313.8304 93.456 314.7905 93.8387 316.0899 C 94.2038 317.3304 95.4232 317.5835 96.582 317.8191 C 101.9322 318.9053 107.267 320.1608 112.737 320.387 C 117.7563 320.5942 124.0461 319.0252 126.0037 314.0872 C 127.0216 311.521 128.6025 310.9487 130.7531 310.3875 C 134.8846 309.3089 138.8735 307.7799 142.8911 306.3475 C 143.2913 306.0658 143.659 305.6715 144.2662 305.8824 C 143.9989 306.3932 143.5751 306.5119 143.1601 306.6443 C 140.0457 309.2607 136.6021 311.4181 133.2669 313.7258 C 127.6571 317.6076 121.6494 320.7651 115.5002 323.7049 C 113.779 324.5281 112.2973 324.2225 110.7028 323.9654 C 104.6458 322.9869 99.0224 324.3668 93.6916 327.1311 C 89.9436 329.0749 86.5695 331.5107 84.5362 335.3919 C 83.9914 336.4322 83.5534 337.496 84.3157 338.6072 C 85.1559 339.8326 86.4867 339.7025 87.605 339.414 C 93.4869 337.8963 99.5193 337.0535 105.366 335.3788 C 110.107 334.0208 113.3544 331.0909 114.9968 326.4588 C 115.2442 325.762 115.59 325.4224 116.1904 325.1707 C 125.8679 321.1098 134.3599 315.0904 142.8412 309.0509 C 146.183 306.6712 149.6341 304.4381 152.8914 301.9501 C 155.0149 300.3279 157.0286 298.5814 159.4695 297.4348 C 159.5775 297.2064 159.8139 297.0315 159.9724 297.2259 C 160.1674 297.4654 159.8074 297.5309 159.6705 297.6593 C 157.2097 300.7429 154.7575 303.8323 152.2783 306.9006 C 151.9722 307.279 151.702 307.7025 151.0929 307.8057 C 144.7277 308.8837 139.9382 312.5358 135.9669 317.3618 C 131.8119 322.4112 130.0263 328.5763 128.1084 334.6764 C 126.555 339.6166 124.8545 344.5109 123.186 349.414 C 123.012 349.9251 122.9803 350.4155 122.9732 350.9277 C 122.9423 353.3426 124.1708 354.1791 126.4893 353.3828 C 129.4676 352.3598 131.972 350.5456 134.3333 348.5633 C 139.1828 344.4925 143.5989 340.0104 146.774 334.4547 C 150.6223 327.721 152.8807 320.5344 152.1646 312.7246 C 151.9787 310.7004 152.6502 309.3837 153.6987 307.9774 C 157.54 302.8275 161.8872 298.1092 166.2066 293.3694 C 166.5139 293.0323 166.7477 292.4294 167.4198 292.6344 L 167.4094 292.6463 C 167.1897 292.2086 167.593 292.0394 167.7838 291.7786 Z M 138.9801 331.3256 L 138.9801 331.3256 C 139.7988 332.4084 139.3526 333.6528 139.7993 334.7195 C 140.025 335.2589 139.765 336.134 140.7336 336.0036 C 141.6631 335.8783 141.637 335.0752 141.5375 334.381 C 141.3686 333.2021 141.1231 332.0345 140.9275 330.8596 C 140.5695 328.7081 141.7703 325.7555 143.6604 324.2285 C 143.6604 324.7449 143.6374 325.2036 143.6666 325.6591 C 143.7032 326.2314 143.9563 326.6872 144.5953 326.6776 C 145.2957 326.6674 145.3748 326.1291 145.3768 325.578 C 145.3782 325.2339 145.4213 324.8819 145.3654 324.546 C 144.5871 319.8538 148.028 316.9953 150.0486 313.1989 C 152.8177 325.6719 137.2884 349.1549 124.8471 351.7688 C 124.6068 351.2622 124.7763 350.7993 124.9104 350.2874 C 125.8764 346.5938 127.2682 343.0423 128.5336 339.4517 C 130.4425 334.0378 131.6982 328.3971 134.3424 323.2372 C 137.4523 317.1677 142.2499 312.9814 148.411 310.2565 C 148.7744 310.0961 149.2671 309.5915 149.6449 310.1009 C 150.0083 310.5907 149.3646 310.9017 149.1542 311.2455 C 147.8421 313.3888 146.4384 315.4759 145.1344 317.624 C 144.7313 318.2885 144.3138 318.6465 143.5371 318.939 C 141.5701 319.68 139.7007 320.6826 137.8043 321.6047 C 137.1611 321.9177 136.4919 322.399 136.8839 323.1862 C 137.3468 324.1165 138.0818 323.447 138.6547 323.2012 C 139.9031 322.6654 141.0746 321.9284 142.558 321.6773 C 140.3442 326.1589 140.3269 326.1759 135.9502 327.721 C 135.5207 327.8727 135.0808 327.9949 134.6477 328.1372 C 134.066 328.3279 133.249 328.3968 133.4191 329.2543 C 133.5954 330.1481 134.4095 329.8416 134.9824 329.7626 C 135.8994 329.637 136.7504 329.0647 138.0166 329.3481 C 136.2073 331.7111 135.4283 334.5602 133.0067 336.2851 C 132.6183 336.5617 132.5701 336.9433 132.679 337.3534 C 132.7901 337.7741 133.073 338.0391 133.5172 338.1123 C 134.3013 338.241 134.7625 337.9 135.178 337.2219 C 136.3932 335.2411 137.6915 333.3112 138.9801 331.3256 Z M 125.0189 311.9085 L 125.0189 311.9085 C 124.3908 313.7241 124.3298 313.8248 123.4488 314.7418 C 119.8264 318.5121 115.1819 318.9025 110.4395 318.342 C 105.9956 317.8174 101.6056 316.8377 97.1895 316.0712 C 96.679 315.9828 96.0752 315.8929 95.8887 315.445 C 95.6917 314.9736 96.2977 314.6907 96.5968 314.375 C 102.2417 308.4163 113.0712 306.3591 120.4889 309.8339 C 120.9044 310.0289 121.534 310.0252 121.538 310.7387 C 117.5786 311.5874 113.6469 312.4397 109.7093 313.2649 C 109.0225 313.4089 108.1431 313.4614 108.3047 314.3679 C 108.491 315.4105 109.474 314.983 110.1682 314.996 C 110.3295 314.9989 110.4894 314.879 110.6561 314.8447 C 115.3689 313.8789 120.0827 312.9165 125.0189 311.9085 Z M 110.2136 325.7736 L 110.2136 325.7736 C 107.7514 326.9024 105.6368 327.8605 103.5329 328.8421 C 102.8089 329.1803 102.1496 329.7385 102.6629 330.5582 C 103.1573 331.348 103.7463 330.7901 104.3898 330.4293 C 106.9826 328.9754 109.7677 327.9504 112.7443 326.7232 C 111.257 330.846 108.1823 332.5584 104.6208 333.625 C 100.0466 334.9945 95.3096 335.6566 90.6693 336.7443 C 89.1309 337.1049 87.618 337.6899 85.9771 337.4192 C 87.353 330.9914 98.8041 325.4085 110.2136 325.7736 " fill="#5fac52"/>
<path transform="matrix(1,0,0,-1,0,595.2756)" d="M 196.0702 294.7516 C 195.4891 296.4393 194.908 298.1268 194.3269 299.8137 C 195.6906 305.5442 197.1703 311.2509 198.3467 317.0194 C 198.6931 318.7179 198.0947 320.4264 197.2661 322.2133 C 195.2697 326.5166 195.5591 331.1342 197.4909 335.4951 C 199.0352 338.9817 200.8066 342.3691 202.4932 345.7925 C 202.7446 346.3033 203.0343 346.8107 203.3912 347.2506 C 204.2833 348.3496 205.4251 348.3967 206.5079 347.4488 C 207.7197 346.388 208.2654 344.9557 208.8215 343.5026 C 210.5833 338.8989 210.8443 334.1628 210.0719 329.3538 C 209.3077 324.5978 206.4254 321.3074 202.3974 318.9807 C 200.975 318.1586 200.2904 317.0996 199.9488 315.555 C 198.6982 309.9013 197.3537 304.2686 196.0671 298.6226 C 195.9548 298.1288 196.0081 297.5975 195.9837 297.0694 C 198.0369 297.7699 197.9127 297.8028 198.508 300.0365 C 199.1653 302.5023 200.7967 304.3689 202.8855 305.7897 C 206.6876 308.376 210.9339 309.6323 215.4781 310.2687 C 220.337 310.9496 225.0445 309.937 229.8019 309.4892 C 232.634 309.2224 233.5533 307.0661 231.9262 304.7119 C 230.1642 302.1619 227.6578 300.4053 225.0096 298.9083 C 220.3994 296.3021 215.4407 294.6427 210.1691 294.0596 C 207.3934 293.7529 204.6753 294.4488 202.1553 295.4648 C 199.8595 296.39 197.9359 296.4047 196.0702 294.7516 Z M 208.1982 301.5048 L 208.1982 301.5048 C 209.3221 301.8112 210.234 302.1225 211.1712 302.3022 C 213.3048 302.7118 214.6629 303.7703 214.9024 306.0901 C 214.977 306.8158 214.924 308.1917 216.076 307.9409 C 217.2214 307.6911 216.455 306.5083 216.4575 305.7214 C 216.4575 305.6346 216.5584 305.5482 216.7007 305.3208 C 218.9174 305.9289 221.2951 305.4243 223.5949 305.9909 C 224.0932 306.1142 224.7035 306.2225 224.8506 305.5147 C 224.9821 304.8831 224.5014 304.5898 223.9651 304.4494 C 223.6921 304.3783 223.3865 304.4324 223.1127 304.3619 C 221.15 303.8559 219.0929 304.1847 216.7988 303.8859 C 217.8714 302.9037 218.9256 302.834 219.8455 302.4561 C 220.3954 302.2308 221.4592 302.3694 221.0958 301.2695 C 220.7682 300.2794 219.9319 300.678 219.363 300.9472 C 217.0483 302.0431 214.7871 301.8671 212.4935 300.8999 C 211.6854 300.5597 210.8203 300.3551 209.935 300.0736 C 210.5144 299.5787 211.1258 299.4083 211.7619 299.575 C 212.3997 299.742 212.9811 299.7748 213.0786 299.0041 C 213.1747 298.2441 212.5879 297.9278 211.917 297.8019 C 211.0269 297.6344 210.13 297.8612 209.4267 298.2762 C 206.7789 299.8395 204.6107 298.3246 202.0017 297.4105 C 204.6223 296.454 206.9929 295.7031 209.4287 295.8452 C 212.9023 296.0478 216.3002 296.875 219.5093 298.2552 C 223.4106 299.9327 227.2229 301.7871 230.0448 305.1346 C 230.531 305.7111 231.0928 306.3691 230.7472 307.1225 C 230.4397 307.7926 229.6344 307.7563 228.9376 307.8133 C 226.1509 308.0426 223.3661 308.3012 220.5845 308.5829 C 217.2467 308.9208 214.0092 308.4233 210.8146 307.4992 C 210.4866 307.4037 210.0022 307.3765 210.0668 306.9536 C 210.3863 304.871 208.635 303.5429 208.1982 301.5048 Z M 203.419 329.756 L 203.419 329.756 C 204.493 330.461 205.1447 330.9222 205.8276 331.3304 C 207.8067 332.513 208.8876 334.0616 208.4443 336.5311 C 207.9598 339.2323 207.6925 341.9731 206.1 344.5951 C 205.7936 339.4902 204.9795 334.7504 203.419 329.756 Z M 201.3945 329.582 L 201.3945 329.582 C 203.1415 334.5208 203.8363 339.4191 204.1671 344.4094 C 203.057 342.4884 202.2168 340.4344 201.0626 338.5755 C 199.5905 336.2057 199.0661 333.9397 200.6923 331.4577 C 200.9945 330.9973 201.0951 330.4046 201.3945 329.582 Z M 201.509 320.9854 L 201.509 320.9854 C 205.3295 322.647 208.4457 327.2984 207.8719 330.535 C 206.1553 329.3566 204.4661 328.2222 202.8141 327.0362 C 202.5774 326.8661 202.4504 326.4596 202.3917 326.1402 C 202.0847 324.4788 201.8171 322.8106 201.509 320.9854 Z M 208.7357 306.8481 L 208.7357 306.8481 C 206.8512 306.1154 205.3199 305.3682 203.9304 304.367 C 202.3835 303.2524 201.0926 301.8872 200.2915 300.1365 C 200.1195 299.7607 199.8232 298.758 200.5217 298.9865 C 202.2571 299.5554 204.376 299.5427 205.5818 301.123 C 206.8421 302.7747 207.845 304.6329 208.7357 306.8481 Z M 199.453 321.8386 L 199.453 321.8386 C 201.1632 325.5491 199.9545 328.6692 198.4221 331.7547 C 197.9135 328.4649 197.7769 325.2118 199.453 321.8386 " fill="#5fac52"/>
<path transform="matrix(1,0,0,-1,0,595.2756)" d="M 183.8857 326.107 C 183.3214 326.7848 183.1286 327.6281 182.8474 328.4323 C 183.6828 330.8409 183.1995 332.9629 182.2073 335.3539 C 178.6059 344.0341 181.012 351.7089 186.7564 358.6952 C 189.1006 361.5466 191.9395 363.8693 194.5514 366.4332 C 195.734 367.5937 196.9319 367.1493 197.3772 365.3484 C 198.1746 362.1237 198.4626 358.8301 198.3056 355.5116 C 198.0777 350.7168 197.3959 346.0226 195.3646 341.5921 C 193.5947 337.7313 190.9355 334.317 187.374 332.4526 C 184.7463 331.0775 185.0094 329.1188 184.2837 327.2304 C 184.1414 326.8596 184.0181 326.4814 183.8857 326.107 Z M 186.3675 333.9918 L 186.3675 333.9918 C 190.4553 336.8032 193.2593 340.5399 194.8428 345.2729 C 196.5708 350.4365 196.4996 355.7421 196.2808 361.0483 C 196.2306 362.2632 196.2621 363.6522 195.3921 365.0176 C 193.0042 362.5821 190.5585 360.3209 188.392 357.8187 C 185.7569 354.776 183.6261 351.3796 182.759 347.3575 C 182.6419 346.8163 181.997 345.8914 183.1317 345.748 C 184.1012 345.6252 184.3546 344.9965 184.6188 344.323 C 185.1636 342.9334 185.6455 341.5195 186.2135 339.9491 C 186.4936 340.7848 186.7901 341.4152 186.9038 342.0774 C 187.0333 342.8317 187.7803 343.58 187.2065 344.3482 C 186.1155 345.8086 185.9791 347.6432 185.1695 349.2094 C 184.8818 349.7661 184.6463 350.528 185.4641 350.8166 C 186.2283 351.0856 186.5319 350.4161 186.7929 349.8012 C 187.2173 348.8009 187.6867 347.8195 188.2964 346.4802 C 189.102 349.7173 189.8311 352.5236 190.4805 355.3486 C 190.6294 355.9941 190.6104 356.7087 191.478 356.6344 C 192.3831 356.5568 192.234 355.7662 192.2156 355.1581 C 192.2043 354.7678 192.0881 354.3772 191.9894 353.9937 C 191.5373 352.2308 191.0682 350.4719 190.6197 348.7079 C 190.5129 348.2878 190.3068 347.6826 191.1274 347.9267 C 191.736 348.1075 192.4296 348.5432 192.774 347.7796 C 193.2111 346.8087 192.221 346.4515 191.6269 346.1774 C 189.345 345.1249 188.9147 343.099 188.5147 340.8202 C 188.9419 340.9968 189.2041 341.0918 189.4538 341.2106 C 189.9578 341.4515 190.4627 341.5997 190.7617 340.9586 C 191.0373 340.3675 190.7113 339.9928 190.2019 339.711 C 189.9026 339.5452 189.6446 339.2997 189.3373 339.1532 C 187.1484 338.1114 186.5415 336.1742 186.3777 333.9797 C 186.1316 334.0542 186.0823 333.9658 186.1877 333.7492 C 186.2478 333.8303 186.3077 333.9111 186.3675 333.9918 Z M 182.2904 345.4815 L 182.2904 345.4815 C 182.05 341.3965 182.8718 337.9932 184.373 334.715 C 184.6636 335.7088 185.5185 336.507 185.1089 337.6256 C 184.214 340.071 183.3483 342.5267 182.2904 345.4815 " fill="#5fac52"/>
<path transform="matrix(1,0,0,-1,0,595.2756)" d="M 104.3657 344.77 C 104.4057 342.5766 103.0972 341.784 101.2555 342.4938 C 98.2885 343.6376 96.025 345.7358 93.9821 348.0786 C 89.0011 353.7904 88.3723 360.6009 89.1031 367.7417 C 89.3758 370.4029 89.6536 373.064 89.879 375.7289 C 89.9283 376.3091 90.0071 376.8585 90.239 377.3857 C 90.5142 378.0125 90.7356 378.7206 91.5851 378.7597 C 92.5163 378.8025 92.9316 378.1091 93.1156 377.3911 C 94.8002 370.8255 98.4019 365.0689 100.8822 358.844 C 102.7386 354.1844 103.7546 349.2913 104.3657 344.77 Z M 100.5089 344.935 L 100.5089 344.935 C 100.7782 344.6929 100.9548 344.2476 101.5404 344.5177 C 101.2606 344.7709 101.0203 344.988 100.7799 345.2057 C 98.4691 347.802 96.9273 350.8398 95.7226 354.0651 C 93.5626 359.8486 92.3261 365.8569 91.4202 371.9557 C 90.9215 368.0974 90.61 364.2616 90.8929 360.3589 C 91.3912 353.4721 94.7704 348.4967 100.5089 344.935 Z M 101.723 347.239 L 101.723 347.239 C 100.887 354.93 97.7343 361.7813 94.0448 368.4385 C 95.4468 360.9527 96.8579 353.4701 101.723 347.239 " fill="#5fac52"/>
<path transform="matrix(1,0,0,-1,0,595.2756)" d="M 124.3641 329.1276 C 124.399 327.4645 123.9202 327.1686 121.8869 328.1474 C 118.747 329.6591 116.3786 331.8276 114.9528 335.1385 C 113.1503 339.3241 111.0146 343.3654 109.0735 347.4933 C 108.627 348.4414 107.9478 349.5583 109.0338 350.4779 C 110.0435 351.3334 111.2272 350.9498 112.2423 350.4002 C 115.7474 348.5021 118.398 345.731 120.4081 342.2991 C 122.6928 338.3991 124.164 334.2594 124.3641 329.1276 Z M 122.0865 330.2031 L 122.0865 330.2031 C 122.9559 335.0985 117.0094 347.0519 110.5279 348.7507 C 113.0865 343.4947 115.4866 338.3405 118.1146 333.3053 C 118.8862 331.8259 120.4506 330.8848 122.0865 330.2031 " fill="#5fac52"/>
<path transform="matrix(1,0,0,-1,0,595.2756)" d="M 190.2195 310.6412 C 189.5323 312.3961 188.8455 314.1513 188.159 315.9054 C 189.4028 318.5104 190.6415 321.12 191.8947 323.7222 C 192.2403 324.4399 192.5597 325.2008 193.6114 325.0587 C 194.544 324.9323 194.7762 324.1984 194.9601 323.4971 C 196.0288 319.413 194.9088 315.8745 192.1864 312.7649 C 191.5512 312.0392 190.8763 311.3481 190.2195 310.6412 Z M 189.8133 313.1048 L 189.8133 313.1048 C 192.5677 315.6965 193.7418 318.422 193.1905 321.7748 C 191.9409 319.068 189.7483 316.726 189.8133 313.1048 " fill="#5fac52"/>
<path transform="matrix(1,0,0,-1,0,595.2756)" d="M 132.0763 341.2735 C 132.0772 340.848 131.8286 340.4747 131.3283 340.361 C 130.843 340.2507 129.2596 342.2489 129.1776 343.0346 C 129.1238 343.5534 129.2533 343.9468 129.8679 343.986 C 130.4773 344.0248 132.0279 342.1862 132.0763 341.2735 " fill="#5fac52"/>
<g id="Layer-2" data-name="Corel_OTF">
</g>
<text fill="#5f45b3" xml:space="preserve" transform="matrix(1 0 -0 1 0 595.2756)" font-size="67.903" font-family="KulimPark" font-weight="bold"><tspan y="-266.6254" x="227.0007 267.6745 314.59547 353.16438 384.87507 428.19718 442.18519 475.86653 520.6146">ACREDITA </tspan></text>
<g id="Layer-2" data-name="Corel_OTF">
</g>
<text fill="#5f45b3" xml:space="preserve" transform="matrix(1 0 -0 1 0 595.2756)" font-size="67.903" font-family="KulimPark" font-weight="bold"><tspan y="-266.6254" x="537.5908">N</tspan></text>
<g id="Layer-2" data-name="Corel_OTF">
</g>
<text fill="#5f45b3" xml:space="preserve" transform="matrix(1 0 -0 1 0 595.2756)" font-size="67.903" font-family="KulimPark" font-weight="bold"><tspan y="-266.6254" x="580.0983">E</tspan></text>
<g id="Layer-2" data-name="Corel_OTF">
</g>
<text fill="#5f45b3" xml:space="preserve" transform="matrix(1 0 -0 1 0 595.2756)" font-size="67.903" font-family="KulimPark" font-weight="bold"><tspan y="-266.6254" x="611.945">L</tspan></text>
<g id="Layer-2" data-name="Corel_OTF">
</g>
<text fill="#5f45b3" xml:space="preserve" transform="matrix(1 0 -0 1 0 595.2756)" font-size="67.903" font-family="KulimPark" font-weight="bold"><tspan y="-266.6254" x="640.2609">A</tspan></text>
<g id="Layer-2" data-name="Corel_OTF">
</g>
<text fill="#5fac52" xml:space="preserve" transform="matrix(1 0 -0 1 0 595.2756)" font-size="67.903" font-family="KulimPark" font-weight="bold"><tspan y="-266.6254" x="683.7191">$</tspan></text>
</g>
</g>
</svg>
